<mxfile host="app.diagrams.net" modified="2021-12-21T06:42:49.117Z" agent="5.0 (Windows)" etag="4iBd7mtXeWCzxW6VjMlk" version="15.9.6" type="github">
  <diagram id="9ZfrWXQ-zo-7EMHKX_rf" name="Page-1">
    <mxGraphModel dx="1038" dy="536" grid="1" gridSize="10" guides="1" tooltips="1" connect="1" arrows="1" fold="1" page="1" pageScale="1" pageWidth="850" pageHeight="1100" math="0" shadow="0">
      <root>
        <mxCell id="0" />
        <mxCell id="1" parent="0" />
        <mxCell id="Fc1_IcPx7h7VtZE7fbSr-1" value="" style="ellipse;html=1;shape=startState;fillColor=#000000;strokeColor=#ff0000;" parent="1" vertex="1">
          <mxGeometry y="440" width="30" height="30" as="geometry" />
        </mxCell>
        <mxCell id="Fc1_IcPx7h7VtZE7fbSr-2" value="" style="edgeStyle=orthogonalEdgeStyle;html=1;verticalAlign=bottom;endArrow=open;endSize=8;strokeColor=#ff0000;rounded=0;entryX=0;entryY=0.5;entryDx=0;entryDy=0;" parent="1" source="Fc1_IcPx7h7VtZE7fbSr-1" target="Fc1_IcPx7h7VtZE7fbSr-3" edge="1">
          <mxGeometry relative="1" as="geometry">
            <mxPoint x="90" y="455" as="targetPoint" />
          </mxGeometry>
        </mxCell>
        <mxCell id="Fc1_IcPx7h7VtZE7fbSr-5" style="edgeStyle=orthogonalEdgeStyle;rounded=0;orthogonalLoop=1;jettySize=auto;html=1;" parent="1" source="Fc1_IcPx7h7VtZE7fbSr-3" edge="1">
          <mxGeometry relative="1" as="geometry">
            <mxPoint x="400" y="455" as="targetPoint" />
          </mxGeometry>
        </mxCell>
        <mxCell id="Fc1_IcPx7h7VtZE7fbSr-6" style="edgeStyle=orthogonalEdgeStyle;rounded=0;orthogonalLoop=1;jettySize=auto;html=1;entryX=0.5;entryY=0;entryDx=0;entryDy=0;" parent="1" source="Fc1_IcPx7h7VtZE7fbSr-3" target="Fc1_IcPx7h7VtZE7fbSr-8" edge="1">
          <mxGeometry relative="1" as="geometry">
            <mxPoint x="200" y="640" as="targetPoint" />
          </mxGeometry>
        </mxCell>
        <mxCell id="KzmjhRW2WY2DTThj0KtT-3" style="edgeStyle=orthogonalEdgeStyle;rounded=0;orthogonalLoop=1;jettySize=auto;html=1;exitX=0.25;exitY=0;exitDx=0;exitDy=0;" edge="1" parent="1" source="Fc1_IcPx7h7VtZE7fbSr-3" target="KzmjhRW2WY2DTThj0KtT-1">
          <mxGeometry relative="1" as="geometry" />
        </mxCell>
        <mxCell id="Fc1_IcPx7h7VtZE7fbSr-3" value="Stopwatch not on&amp;nbsp;" style="rounded=1;whiteSpace=wrap;html=1;" parent="1" vertex="1">
          <mxGeometry x="140" y="425" width="120" height="60" as="geometry" />
        </mxCell>
        <mxCell id="Fc1_IcPx7h7VtZE7fbSr-4" value="onExerciseTabClick()" style="text;html=1;strokeColor=none;fillColor=none;align=center;verticalAlign=middle;whiteSpace=wrap;rounded=0;" parent="1" vertex="1">
          <mxGeometry x="50" y="425" width="60" height="30" as="geometry" />
        </mxCell>
        <mxCell id="Fc1_IcPx7h7VtZE7fbSr-7" value="onCalendarClick()" style="text;html=1;strokeColor=none;fillColor=none;align=center;verticalAlign=middle;whiteSpace=wrap;rounded=0;" parent="1" vertex="1">
          <mxGeometry x="220" y="530" width="60" height="30" as="geometry" />
        </mxCell>
        <mxCell id="Fc1_IcPx7h7VtZE7fbSr-10" style="edgeStyle=orthogonalEdgeStyle;rounded=0;orthogonalLoop=1;jettySize=auto;html=1;entryX=0;entryY=0.5;entryDx=0;entryDy=0;" parent="1" source="Fc1_IcPx7h7VtZE7fbSr-8" target="Fc1_IcPx7h7VtZE7fbSr-16" edge="1">
          <mxGeometry relative="1" as="geometry">
            <mxPoint x="360" y="640" as="targetPoint" />
          </mxGeometry>
        </mxCell>
        <mxCell id="Fc1_IcPx7h7VtZE7fbSr-8" value="Date Selected" style="rounded=1;whiteSpace=wrap;html=1;" parent="1" vertex="1">
          <mxGeometry x="140" y="610" width="120" height="60" as="geometry" />
        </mxCell>
        <mxCell id="Fc1_IcPx7h7VtZE7fbSr-11" value="onExerciseButtonClick()" style="text;html=1;strokeColor=none;fillColor=none;align=center;verticalAlign=middle;whiteSpace=wrap;rounded=0;" parent="1" vertex="1">
          <mxGeometry x="300" y="425" width="60" height="30" as="geometry" />
        </mxCell>
        <mxCell id="Fc1_IcPx7h7VtZE7fbSr-13" style="edgeStyle=orthogonalEdgeStyle;rounded=0;orthogonalLoop=1;jettySize=auto;html=1;" parent="1" source="Fc1_IcPx7h7VtZE7fbSr-12" edge="1">
          <mxGeometry relative="1" as="geometry">
            <mxPoint x="660" y="455" as="targetPoint" />
          </mxGeometry>
        </mxCell>
        <mxCell id="Fc1_IcPx7h7VtZE7fbSr-12" value="Exercise Selected" style="rounded=1;whiteSpace=wrap;html=1;" parent="1" vertex="1">
          <mxGeometry x="400" y="425" width="120" height="60" as="geometry" />
        </mxCell>
        <mxCell id="Fc1_IcPx7h7VtZE7fbSr-14" value="onStopwatchButtonClick()" style="text;html=1;strokeColor=none;fillColor=none;align=center;verticalAlign=middle;whiteSpace=wrap;rounded=0;" parent="1" vertex="1">
          <mxGeometry x="560" y="425" width="60" height="30" as="geometry" />
        </mxCell>
        <mxCell id="Fc1_IcPx7h7VtZE7fbSr-21" style="edgeStyle=orthogonalEdgeStyle;rounded=0;orthogonalLoop=1;jettySize=auto;html=1;entryX=0.5;entryY=0;entryDx=0;entryDy=0;" parent="1" source="Fc1_IcPx7h7VtZE7fbSr-15" target="Fc1_IcPx7h7VtZE7fbSr-3" edge="1">
          <mxGeometry relative="1" as="geometry">
            <mxPoint x="640" y="170" as="targetPoint" />
            <Array as="points">
              <mxPoint x="730" y="170" />
              <mxPoint x="200" y="170" />
            </Array>
          </mxGeometry>
        </mxCell>
        <mxCell id="Fc1_IcPx7h7VtZE7fbSr-15" value="Stopwatch On" style="rounded=1;whiteSpace=wrap;html=1;" parent="1" vertex="1">
          <mxGeometry x="660" y="425" width="120" height="60" as="geometry" />
        </mxCell>
        <mxCell id="Fc1_IcPx7h7VtZE7fbSr-16" value="Exercise Selected" style="rounded=1;whiteSpace=wrap;html=1;" parent="1" vertex="1">
          <mxGeometry x="400" y="610" width="120" height="60" as="geometry" />
        </mxCell>
        <mxCell id="Fc1_IcPx7h7VtZE7fbSr-17" value="onExerciseButtonClick()" style="text;html=1;strokeColor=none;fillColor=none;align=center;verticalAlign=middle;whiteSpace=wrap;rounded=0;" parent="1" vertex="1">
          <mxGeometry x="300" y="610" width="60" height="30" as="geometry" />
        </mxCell>
        <mxCell id="Fc1_IcPx7h7VtZE7fbSr-18" style="edgeStyle=orthogonalEdgeStyle;rounded=0;orthogonalLoop=1;jettySize=auto;html=1;" parent="1" edge="1">
          <mxGeometry relative="1" as="geometry">
            <mxPoint x="660" y="640" as="targetPoint" />
            <mxPoint x="520" y="640" as="sourcePoint" />
          </mxGeometry>
        </mxCell>
        <mxCell id="Fc1_IcPx7h7VtZE7fbSr-19" value="onStopwatchButtonClick()" style="text;html=1;strokeColor=none;fillColor=none;align=center;verticalAlign=middle;whiteSpace=wrap;rounded=0;" parent="1" vertex="1">
          <mxGeometry x="560" y="610" width="60" height="30" as="geometry" />
        </mxCell>
        <mxCell id="Fc1_IcPx7h7VtZE7fbSr-26" style="edgeStyle=orthogonalEdgeStyle;rounded=0;orthogonalLoop=1;jettySize=auto;html=1;entryX=0;entryY=0.75;entryDx=0;entryDy=0;" parent="1" source="Fc1_IcPx7h7VtZE7fbSr-20" target="Fc1_IcPx7h7VtZE7fbSr-3" edge="1">
          <mxGeometry relative="1" as="geometry">
            <Array as="points">
              <mxPoint x="720" y="740" />
              <mxPoint x="120" y="740" />
              <mxPoint x="120" y="470" />
            </Array>
          </mxGeometry>
        </mxCell>
        <mxCell id="Fc1_IcPx7h7VtZE7fbSr-20" value="Stopwatch On" style="rounded=1;whiteSpace=wrap;html=1;" parent="1" vertex="1">
          <mxGeometry x="660" y="610" width="120" height="60" as="geometry" />
        </mxCell>
        <mxCell id="Fc1_IcPx7h7VtZE7fbSr-25" value="onStopWatchButtonClick()" style="text;html=1;align=center;verticalAlign=middle;resizable=0;points=[];autosize=1;strokeColor=none;fillColor=none;" parent="1" vertex="1">
          <mxGeometry x="395" y="140" width="160" height="20" as="geometry" />
        </mxCell>
        <mxCell id="Fc1_IcPx7h7VtZE7fbSr-27" value="onStopWatchButtonClick()" style="text;html=1;align=center;verticalAlign=middle;resizable=0;points=[];autosize=1;strokeColor=none;fillColor=none;" parent="1" vertex="1">
          <mxGeometry x="360" y="760" width="160" height="20" as="geometry" />
        </mxCell>
        <mxCell id="KzmjhRW2WY2DTThj0KtT-1" value="" style="ellipse;html=1;shape=endState;fillColor=#000000;strokeColor=#ff0000;" vertex="1" parent="1">
          <mxGeometry x="150" y="320" width="30" height="30" as="geometry" />
        </mxCell>
      </root>
    </mxGraphModel>
  </diagram>
</mxfile>
